<?xml version="1.0" encoding="utf-8"?>
<!-- Generator: Adobe Illustrator 23.0.3, SVG Export Plug-In . SVG Version: 6.00 Build 0)  -->
<svg version="1.1" id="Group_29" xmlns="http://www.w3.org/2000/svg" xmlns:xlink="http://www.w3.org/1999/xlink" x="0px" y="0px"
	 viewBox="0 0 68.8 28.7" style="enable-background:new 0 0 68.8 28.7;" xml:space="preserve">
<style type="text/css">
	.st0{fill:#FFFFFF;}
	.st1{fill:#19A6A2;}
</style>
<path id="Path_334" class="st0" d="M56.6,28.7c-0.6-0.2-1.1-0.3-1.7-0.6c-2.9-1.4-4.2-4.9-2.8-7.8s4.9-4.2,7.8-2.8
	c1.8,0.8,3,2.6,3.3,4.5c0.4,3.2-1.8,6.1-4.9,6.5c0,0-0.1,0.1-0.1,0.1H58c-0.4-0.1-0.8-0.1-1.2,0H56.6z"/>
<path id="Path_335" class="st0" d="M10.7,28.7c-0.8-0.2-1.6-0.5-2.3-0.9c-2.7-1.7-3.5-5.3-1.8-8c1.7-2.7,5.3-3.5,8-1.8
	c2.7,1.7,3.5,5.3,1.8,8c-0.8,1.3-2.2,2.2-3.7,2.5c-0.2,0-0.4,0-0.6,0.1H12c-0.4-0.1-0.7-0.1-1.1,0L10.7,28.7z"/>
<path id="Path_336" class="st1" d="M56.8,28.7c0.4-0.2,0.8-0.2,1.2,0H56.8z"/>
<path id="Path_337" class="st1" d="M10.9,28.7c0.3-0.2,0.7-0.2,1.1,0H10.9z"/>
<path id="Path_338" class="st0" d="M68.8,21.4c-0.2-2.4-0.5-4.7-0.7-7.1c-0.1-0.7-0.7-1.3-1.4-1.4c-0.7-0.1-1.5-0.2-2.2-0.3
	c-2.6-0.4-5.1-0.8-7.7-1.2c-2.8-0.4-5.5-0.9-8.3-1.3c-0.2,0-0.4-0.2-0.5-0.3c-3.1-3.1-6.1-6.1-9.2-9.2C38.5,0.2,38,0,37.4,0
	C33.7,0,30,0,26.3,0c-3.7,0-7.5,0-11.2,0c-0.3,0-0.6,0.1-0.8,0.3C10.3,3.8,6.2,7.4,2.1,10.9c-0.4,0.3-0.7,0.8-0.7,1.3
	c-0.2,1.4-0.4,2.8-0.6,4.3c-0.2,1.6-0.5,3.2-0.7,4.8c-0.1,0.7,0.4,1.4,1.1,1.5c0,0,0.1,0,0.1,0c0.9,0,1.9,0,2.8,0
	c0.2,0,0.3-0.1,0.3-0.3c0-0.6,0.1-1.1,0.2-1.7c1.2-5.2,7.5-6.6,11.2-3.9c1.7,1.3,2.7,3.3,2.7,5.4c0,0.4,0.2,0.5,0.5,0.5
	c8.4,0,16.7,0,25.1,0c1.9,0,3.8,0,5.7,0c0.3,0,0.4,0,0.4-0.4c0-0.6,0.1-1.1,0.2-1.6c1.4-5.6,8.4-6.6,11.9-3.3c1.4,1.3,2.1,3.1,2.2,5
	c0,0.3,0.1,0.4,0.4,0.4c0.8,0,1.7,0,2.5,0c0.7,0,1.3-0.5,1.4-1.2C68.8,21.6,68.8,21.5,68.8,21.4z M25.7,11.5c-2.5,0-5,0-7.6,0
	c-2.5,0-5,0-7.5,0c-0.2,0-0.5,0.1-0.7-0.2s0.1-0.5,0.2-0.7c0.3-0.5,0.7-1,1.1-1.5c1.8-1.9,3.7-3.8,5.5-5.7C17,3.1,17.4,3,17.8,3
	c2.6,0,5.3,0,7.9,0c0.4,0,0.5,0.1,0.5,0.5c0,2.5,0,5,0,7.6C26.2,11.4,26.1,11.5,25.7,11.5z M45.1,11c-0.2,0.3-0.5,0.5-0.9,0.5
	c-2.6,0-5.1,0-7.7,0c-2.5,0-5,0-7.6,0c-0.4,0-0.5-0.1-0.5-0.4c0-2.5,0-5.1,0-7.6c0-0.3,0.1-0.4,0.4-0.4c2.9,0,5.8,0,8.7,0
	c0.3,0,0.6,0.1,0.7,0.3c2.2,2.3,4.3,4.5,6.5,6.8C45.1,10.3,45.2,10.7,45.1,11L45.1,11z"/>
</svg>
