<?xml version="1.0" encoding="utf-8"?>
<!-- Generator: Adobe Illustrator 23.0.3, SVG Export Plug-In . SVG Version: 6.00 Build 0)  -->
<svg version="1.1" id="Group_30" xmlns="http://www.w3.org/2000/svg" xmlns:xlink="http://www.w3.org/1999/xlink" x="0px" y="0px"
	 viewBox="0 0 69.9 38.9" style="enable-background:new 0 0 69.9 38.9;" xml:space="preserve">
<style type="text/css">
	.st0{fill:#FFFFFF;}
</style>
<path id="Path_333" class="st0" d="M35.6,26.8c2.1-2.5,4-5,6-7.6l7.3-9.2c0.1,0.1,0.1,0.2,0.2,0.2c0.5,1.3,1.1,2.6,1.6,4
	c0.2,0.5,0.2,0.5-0.3,0.8c-6.1,3.6-8.2,11.6-4.5,17.7c3.6,6.1,11.6,8.2,17.7,4.5c6.1-3.6,8.2-11.6,4.5-17.7c-2.9-4.9-8.7-7.4-14.3-6
	c-0.3,0.1-0.5,0-0.6-0.3c-1.7-4.1-3.4-8.2-5.1-12.3C48,0.4,47.3-0.1,46.6,0h-5.8c-0.2,0-0.5,0-0.7,0.1c-0.7,0.3-1,1.1-0.7,1.8
	c0.2,0.5,0.7,0.8,1.2,0.8c1.7,0,3.4,0,5.1,0c0.2,0,0.3,0,0.4,0.2c0.4,0.9,0.7,1.9,1.1,2.8c0,0.1,0.1,0.3-0.1,0.3c-0.1,0-0.2,0-0.3,0
	c-7.3,0-14.6,0-21.9,0l-1-1.8c0.2,0,0.3-0.1,0.4-0.1c1.6-0.2,3.2-0.3,4.8-0.5c0.6,0,1-0.5,1-1c0-0.6-0.5-1-1.1-1c0,0,0,0-0.1,0
	c-0.9,0-1.8,0-2.7,0c-2,0-4,0-6,0c-0.5,0-1,0.3-1,0.9c0,0,0,0,0,0c0,0.2,0,0.5,0,0.7c0.1,1,0.4,1.4,1.4,1.3c0.2,0,0.4,0.1,0.4,0.3
	c0.4,0.8,0.8,1.5,1.3,2.2c0.1,0.1,0.1,0.3,0,0.5c-1.3,2.2-2.6,4.4-3.9,6.6c-0.1,0.2-0.2,0.3-0.4,0.2c-2.6-1.1-5.4-1.3-8.2-0.6
	c-6.9,1.7-11.1,8.6-9.4,15.5c1.6,6.4,7.8,10.6,14.4,9.6c4.5-0.6,8.4-3.5,10.1-7.8c0.4-1.1,0.7-2.2,0.9-3.3l0.1-0.1
	c0.1,0,0.2-0.1,0.4,0c2.5,0,4.2,0,6.9,0h0.1C34,27.5,34.9,27.2,35.6,26.8 M22.9,27.6c-0.2,1.8-1,3.4-2.1,4.8
	c-2.1,2.6-5.4,4.1-8.7,3.7c-5.6-0.4-9.7-5.2-9.3-10.8c0.3-4.7,3.8-8.5,8.4-9.2c1.9-0.3,3.9-0.1,5.6,0.6c-0.2,0.3-0.3,0.6-0.5,0.9
	c-1.5,2.5-3,5.1-4.5,7.6c-0.5,0.6-0.4,1.4,0.2,1.9c0.2,0.1,0.4,0.2,0.6,0.3c0.1,0,0.3,0,0.5,0c3.1,0,6.2,0,9.3,0c0.1,0,0.3,0,0.4,0
	L22.9,27.6 M22.6,24.7c-2.4,0-4.9,0-7.4,0l2.2-3.8c0.5-0.9,1-1.7,1.5-2.6c0.1-0.2,0.2-0.3,0.4-0.1c1.9,1.6,3.1,3.7,3.5,6.1
	C23,24.7,22.9,24.7,22.6,24.7L22.6,24.7z M31.5,24.7c-1.8,0-3.5,0-5.3,0c-0.4,0-0.5-0.1-0.6-0.5c-0.4-2.8-1.7-5.4-3.8-7.4
	c-0.3-0.3-0.7-0.6-1.1-0.9c-0.1-0.1-0.2-0.2-0.1-0.4c1.1-1.8,2.2-3.7,3.3-5.6l8.3,14.8L31.5,24.7z M33.7,21.9l-7.3-13h20
	c-0.7,0.9-1.5,1.9-2.2,2.8c-2,2.5-4,5-5.9,7.5c0,0.1-0.1,0.1-0.1,0.1c-1,1.2-2.3,3-3.3,4.3 M37.5,19.2L37.5,19.2 M58.6,36
	c-5.5,0.9-10.7-2.9-11.6-8.4c-0.6-4,1.2-8.1,4.7-10.2c0.3-0.2,0.3,0,0.4,0.2c1.2,2.9,2.4,5.9,3.6,8.8c0.2,0.7,1,1.1,1.7,0.9
	c0.7-0.2,1.1-1,0.9-1.7c0,0,0-0.1,0-0.1c-0.8-2-1.6-4-2.5-6c-0.4-1-0.8-1.9-1.2-2.9c-0.1-0.2-0.1-0.3,0.2-0.4
	c5.5-1.2,10.9,2.2,12.2,7.7c0,0.1,0,0.2,0.1,0.2c0.1,0.6,0.2,1.3,0.2,1.9C67.2,31.1,63.5,35.3,58.6,36L58.6,36z"/>
</svg>
