<svg xmlns="http://www.w3.org/2000/svg" width="2047.114" height="3116.325" viewBox="0 0 2047.114 3116.325">
  <g id="Group_35" data-name="Group 35" transform="translate(-1249.911 -876.817)">
    <path id="Path_37" data-name="Path 37" d="M2716.363,2878.974c-34.573,29.86-34.561,5.557-33.6-21.233.543-15.512,26.047-37.263-8.338-44.54-24.016-5.095-44.982-.659-50.18,30.357-3.535,21.138-29.594,43.731,9.623,58.69,13.213,5.037,23.969,16.542,35.855,25.1,25.26-14.126,55.642,5.336,80.373-12.255,25.933-30.289,40.889-1.884,53.481,12.995,17.973,21.219,9.092,51.183-9.541,60.355-61.453,30.239-29.409,67.62-13.376,104.365,7.2,16.484,17.142,31.766,28.358,52.177,3.719-25.426,11.689-44.2,35.231-29.029,33.012,21.267,66.9-3.326,101.558,6.26,22.282,6.169,8.306-14.369.8-23.494-19.5-18.516,10.1-47.558-13.976-65.08l1.016,1.074c-3.546-15.733-3.858-30.3,13.792-38.431l13.907,10.917c60.377,14.508,121.172,7.878,181.931,3.638,55.885,6.585,90.572,37.647,108.407,90.619,13.8,41-7.323,71.2-50.4,64.987-26.081-3.755-51.645-12.95-76.642-21.924-82.844-29.756-129.789-13.722-175.484,60.422-13,21.093-31.43,39.505-41.075,61.869-23.832,55.273-62.412,71.157-117.788,52.269-36.087-24.418-47.926-59.893-43.016-110.394-48.019,58.886-99.169,65.507-156.368,31.488a61.992,61.992,0,0,1-18.817-13.873c-9.844-11.251-17.5-24.385-29.144-34.087-18.2-12.718-38.118-7.613-57.708-5.6-2.564.3-5.118.45-7.682.693a22.126,22.126,0,0,1-14.023-5.36q-47.39-38.793-94.789-77.588c-8.536-23.069,17.466-16.011,23.23-26.614,6.815-34.018-23.888-39.875-41.746-43.028-35.738-6.318-54.011-28.324-64.8-57.028-17.964-47.822-39.991-92.675-73.224-131.674,3.687-18.584,5.28-37.124-.935-55.536-2.321-28.347,34.827-64.247,5.7-80.743-28.128-15.916-54.419,20.585-77.9,41.469-20.71,18.413-43.583,34.4-65.5,51.449-19.462,8.687-41.411-1.536-60.771,7.958-47.509-14.659-94.8-27.179-136.327,14.5-30.84,11.619-64.039-2.623-94.914,8.627-22.721-9.576-48.123-13.918-65.566-33.753-7.172-33.879-.648-68.565-6.029-102.538a62.781,62.781,0,0,0-8.79-13.018c-3.328-31.824-18.148-50.282-51.415-59.582-20.215-5.66-36.236-26.312-54.14-40.233-14.139-10.083-3.153-42.114-33.337-38.164-20.48-4.724-29.733-20.076-23.357-37.6,6.179-17.015,19.037-16.968,40.233-12.371,34.3,7.452,74.551-60.585,61.764-96.44-7.866-19.406.786-40.741-7-60.159,3.094-47.879-20.538-87.268-42.705-126.231-11.736-20.63-31.558-15.4-50.536-5.382-17.072,9.009-34.422,8.605-42.463-12.914-8.236-22.017,3.281-35.613,22.19-45.732,78.618-42.092,81.644-64.512,23.438-134.478-39.089-46.967-89.707-70.035-147.913-80.489-15.12-2.726-30.39-4.735-45.339-8.212-14.842-3.443-34.837-7.832-29.084-27.284,6.433-21.682,23.125,2.934,32.019-1.386,15.2-7.37,28.519,1.8,42.612-.5,26.926-4.4,67.008,19.186,77.889-13.549,8.526-25.656-34.411-33.892-53.215-51.206-36.328-33.429-82.638-36.8-128.737-41.18-17.2-1.628-35.936-6.584-41.2-25.955-4.425-16.265,7.045-23.935,22.512-25.459,34.192,7.462,68.464,5.313,102.758,1.017,13.9,3.511,28.082,6.364,38.039,18.124,22.085,13.087,44.021,14.023,65.759-.809,37.842-35.347,75.291-61.141,127.688-20.55,15.825,12.256,54.325-37.125,64.109,17.037,30.576-8.882,28.312-46.712,53.333-60.493,18.8,3.188,38.073,11.229,55.006-5.22,20.467-23.1,9.288-52.258,14.923-78.19,3.755-19.082,11.575-38.6-6.1-55.318l2.818-1.559-2.485,2.056c-3.129-13.146,5.454-19.118,14.983-24.523,64.086-8.213,134.316-4.6,161.415-83.943,10.906-17.823,10.569-35.565-.358-53.239-10.256-60.782-50.2-75.822-105.853-72.726-21.718,1.2-44-8.04-66.026-12.533-6.69-8.513-7.278-16.829.819-24.846,92.223-1.7,183.49-13.319,275.667,19.718,26.615,9.529,76.78-23.115,106.858-52.454,17.813-17.373,33-32.436,57.666-12.892,5.832,15.791,9.229,31.535-.822,47.048l-22.5,41.261c-15.386,16.3-8.12,34.445-4.262,52.315-13.329,21.347-27.677,14.785-40.8.473-11.792-12.857-27.1-32.424-41.478-17.453-16.462,17.119-13.666,50.536,4.19,62.907,34.009,23.564,42.9,60.828,63.3,91.427,24.038,36.086,4.839,58.332-31.1,50.317-50.166-11.205-52.038,37.194-79.206,53.147-12.844,7.542-2.472,17.741,7.52,26.185,9.76,8.249,16.979,16.484,27.574,3.824,11.122-13.306,25.064-21.693,39.4-31.118,21.265-13.988,43.041-45.374,62.759-10.4,17.707,31.43,54,72.137,1.5,108.465-11.806,16.449-30.266,18.909-48.838,22.849,17.927-.1,32.9-8.976,49.311-11.9,58.865,7.636,77.936,29.837,66.259,77.127-13.817,55.953,17.025,127.652,70.034,162.8,15-37.552,7.716-75.833,3.753-114.009l-.035-12.186c6.677-26.349,6.331-52.708.2-79.079,10.915-42.323-31.708-75.591-19.984-118.053,23.1-19.937,5.394-48.954,15.963-71.687,14.7-39.481,77.266-29.547,81.968-79.367,11.181-14.139,10.118-28.369.323-42.67-18.946-47.244-58.692-85.975-57.8-141.328,51.875-41.468,87.846,12.22,129.615,24.4,26.51,7.729,15.237,38.928,11.945,61.337-1.918,13.065-6.168,27.076,6.826,37.161,4.955,3.834,11.193,2.252,14.728-2.853,8.826-12.765,5.417-26.6-1.189-38.119-15.57-27.134-13.308-59.778-28.947-86.807-24.743-42.786-44.669-50.133-88.622-27.827-18.989,9.634-37.911,17.8-58.956,20.827-28.138,8.583-48.492-.335-61-27.052-13.2-28.174-.82-49.3,21.357-64.2,132.667-89.117,239.306-210.2,371.706-299.983,74.736-50.686,141.154-29.525,204.964,13.654,28.3,19.151,52.615,29.328,85.408,19.313,44.115-13.48,81.909-2.368,109.47,35.046,5.51,7.485,11.932,6.885,17.489,10.5,70.208,45.709,67.389,43.676,10.8,111.92-21.889,26.394-28.509,65.437-42.093,98.728-7.392,26.776-5.889,53.632-.692,80.523,11.355,51.957,43.779,96.66,58.922,144.39,18.736,59,51.252,118.652,44.865,183.709-3.823,38.927,9.206,89.2,23.9,102.643,42.265,38.719,36.513,94.362,66.881,134.109,4.042,5.314,4.089,13.677,5.982,20.63,7.532,19.591.73,40.557,5.8,60.39-11.747,40.751-52.005,59.257-80.882,74.17-37.217,19.209-70.208-16.692-86.113-53.725-10.777-25.1-21.9-40.9-49.37-24.049-15.364,9.426-25.146-.358-36.584-5.718-12.047-5.638-25.6-16.091-36.927-4.621-62.608,63.313-160.84,84.439-201.349,175.415-12.475,28.023-6.814,55.607-15.606,82.095-4.92,26.705-6.526,53.377.729,79.979,5.589,76.007,85.8,82.556,120.444,84.024,94.972,4.008,130.019,70.358,179.471,126.01a355.648,355.648,0,0,0,.068,113.236c-43.953,77.634-71.652,86.288-149.9,48.41-46.344-22.432-90.538-49.6-140.761-63.646-22.457-6.284-34.307-3.224-26.36,23.6,3.36,11.344-20.966,177.934-26.789,187.705-4.793,8.064-9.275,16.311-13.906,24.477C2715.034,2818.192,2731.864,2850.489,2716.363,2878.974Z" transform="translate(0 0)" fill="#dcd8d6"/>
    <path id="Path_38" data-name="Path 38" d="M2407.392,1113.638l16.566,14.762c29.016,14.728,34.629,48.121,55.549,69.238,30.321,13.03,60.863,5.429,91.392,1.4,15.467-.485,28.3,3.685,34.6,19.429-3.673,14.451,2.9,26.648,10.084,37.772,13.885,21.508,49.115,37.83,40.349,63.023-10.028,28.819-36.723,52.65-58.611,76.411-80.777,87.742-142.7,183.929-145,308.382-2.483,14.472-12.406,29.523,3.27,42.622,7.866,7.485,10.557,16.541,8.176,27.111-3.891,14.9-9.933,29.94,2.589,43.872,11.229,14.771,11.031,32.2,10.581,49.323-.7,26.949-20.918,30.183-33.521,15.825-17.533-19.961-46.955-27.908-47.313-68.683-.31-35.9-30.333-71.536-47.245-107.3-9.726-22.974.4-47.925-7.105-71.119,7.06-31.259,47.905-72.635-22.881-80.825-13.191-1.535-29.468-7.289-40.209,11.7-10.455,18.5-7.45,40.555,4.319,47.139,42.891,23.971,21.926,54.5,6.6,76.32-17.406,24.777-42.046,53.955-80.535,26.428-13.929-15.294-32.273-2.807-47.867-7.6-30.206-11.678-61.614-12.579-93.356-10.374-1.167.082-3.153,1.4-3.189,2.207-.069,1.755.878,3.557,1.4,5.337-57.882,12-103.762,48.7-154.312,75.706-7.589,4.053-18.077,15.108-16.945,20.93,5.107,26.164,34.1,23.866,56.727,38.269-35.6,25.182-60.967,8.965-80.718-12.025-34.134-36.271-75.673-57.488-121.831-72.528-23.83-7.775-42-21.163-57.734-43.145-33.22-46.458-79.864-75.359-136.291-90.214-62.781-16.53-124.695-36.595-186.412-56.866-51.818-17-91.15-47.846-102.424-105.139,3.789-5.556,7.925-6.109,12.476-.877l27.226,5.9c-2.713-75.244,51.934-30.911,64.085-21.82,30.287,22.65,26.314-4.436,37.911-15.1,16.785-15.4,17.985-23.91-1.374-36.86-31.038-20.768-38.73-59.881-70.82-84.022-35.8-26.915-12.474-107.057,36.594-131.695,39.124-19.649,76.26-47.88,123.356-48.459,34.27,11.922,70.993-4.133,105.125,9.276,49.232,30.809,115.12,37.9,131.776,112.844,7.034,31.673,54.486,33.6,84.047,46.389,23.3,10.074,44.344,13.111,51.76,43.665,6.283,25.875,41.215,10.338,56.52,27.734,10.512,12.383,21.415,10.256,32.505.865.959-37-4.932-77.033,57.3-60.238,20.5,5.533,31.108-17.546,25.875-40.129-4.191-18.134-8.848-36.166-14.831-60.492,54.511,13.824,85.41,90.145,150.373,47.613-13.158-22.525,1.363-48.47-8.8-71.363-2.092-20.435-20.988-24.615-33.857-34.262-21.01-15.743-10.592-26.67,4.448-37.575,15.408-7.786,29.271-23.877,48.9-9.137,16.819,12.9,39.007,23.333,47.152-2.762,12.15-38.963,37.643-19.521,59.071-20.5l11.83.555a35.1,35.1,0,0,1,12.23,11.1c14.624,22.375,25.044,55.088,59.316,18.575C2384.014,1102.018,2397.426,1107.6,2407.392,1113.638Z" transform="translate(170.633 2101.925)" fill="#dcd8d6"/>
    <path id="Path_39" data-name="Path 39" d="M1404.994,1124.043c-21.5,10.107-25.343,53.447-60.332,35.7-19.614-9.945-42.437-27.2-40.081-51.1,2.713-27.608,36.028-11.275,51.3-24.372,23.8-7.117,47.544-7.5,71.27.3l-.506-.509C1442.813,1110.052,1410.781,1109.937,1404.994,1124.043Z" transform="translate(575.053 2131.453)" fill="#dcd8d6"/>
    <path id="Path_40" data-name="Path 40" d="M1404.834,996.411q-.415,12.422-.82,24.846c-104.561-34.121-115.927-44.807-117.2-117.163C1311.015,955.647,1369.464,960.174,1404.834,996.411Z" transform="translate(389.379 287.802)" fill="#dcd8d6"/>
    <path id="Path_41" data-name="Path 41" d="M1366.765,1166.866c-16.888-22.986-38.651-42.751-47.163-67.135-7.694-22.086,23.586-21.692,35.462-25,16.472-4.563,45.974,3.637,42.854,24.661C1394.753,1120.627,1390.525,1147.587,1366.765,1166.866Z" transform="translate(722.625 2075.357)" fill="#dcd8d6"/>
    <path id="Path_42" data-name="Path 42" d="M1353.893,1154.713c-56.37-18.979-81.6-57.375-69.087-103.36,2.841-10.43,8.942-18.273,17.454-20.272,11.008-2.587,17,6.746,18.066,17.027,3.558,34.677,25.587,61.878,37.033,93.333Q1361.067,1149.5,1353.893,1154.713Z" transform="translate(335.041 1623.05)" fill="#dcd8d6"/>
    <path id="Path_43" data-name="Path 43" d="M1453.451,1120.891c-35.715-12.384-71.548-24.456-106.974-37.577-3.985-1.479-5.776-8.907-11.816-18.956,49.045,5.88,91.369,18.17,133.07,33.371C1466.388,1107.56,1460.924,1114.848,1453.451,1120.891Z" transform="translate(894.199 1978.78)" fill="#dcd8d6"/>
    <path id="Path_44" data-name="Path 44" d="M1451.313,1095q-6.9,19.214-13.781,38.42c-3.281-4.273-8.582-8.167-9.473-12.892-4.089-21.762-60.781-27.641-24-57.8C1432.912,1039.069,1426.12,1096.652,1451.313,1095Z" transform="translate(1496.118 1901.288)" fill="#dcd8d6"/>
    <path id="Path_45" data-name="Path 45" d="M1359.208,1112.959c18.955,6.412,31.51,19.511,15.189,36.086-11.888,12.072-37.045,9.8-47.083-1.189-13.226-14.473-15.257-39.435-1.467-55.861,10.3-12.244,19.165-.808,21.762,12.175C1346.9,1113.133,1345.612,1122.87,1359.208,1112.959Z" transform="translate(701.606 2215.249)" fill="#dcd8d6"/>
    <path id="Path_46" data-name="Path 46" d="M1281.54,1092.006c-4.425-23.344-.995-42.969,27.1-46.3,10.189-1.2,25.021-7.45,30.669,5.592,4.991,11.539-6.665,20.457-13.746,29.177C1311.56,1086.912,1301.187,1107.162,1281.54,1092.006Z" transform="translate(316.812 1755.121)" fill="#dcd8d6"/>
    <path id="Path_47" data-name="Path 47" d="M1580.012,1064.9c-60.942,13.364-121.748,19.5-181.941-3.65Q1489.054,1063.085,1580.012,1064.9Z" transform="translate(1563.257 1945.944)" fill="#dcd8d6"/>
    <path id="Path_48" data-name="Path 48" d="M1335.335,1144.766c32.6-26.105,65.981-14.022,99.352-2.033,3.731,2.16,4.967,4.3,3.72,6.434s-2.485,3.2-3.756,3.2Q1385,1148.555,1335.335,1144.766Z" transform="translate(901.32 2663.196)" fill="#dcd8d6"/>
    <path id="Path_49" data-name="Path 49" d="M1295.242,1173.533q-6.237.45-12.475.877c-2.494-5.163-5.51-10.142-7.37-15.513-5.948-17.27-20.9-37.854-.588-51.286,14.531-9.611,29.93-3.859,19.672,20.432-2.785,6.574-1.386,15.074-1.2,22.676C1293.475,1158.342,1294.549,1165.932,1295.242,1173.533Z" transform="translate(153.95 2388.541)" fill="#dcd8d6"/>
    <path id="Path_50" data-name="Path 50" d="M1280.076,1057.92q22-5.769,44.019-11.528c-.624,3.673.025,8.489-2.077,10.835-11.436,12.775,11.481,40.96-13.261,42.4C1288.83,1100.786,1282.906,1076.875,1280.076,1057.92Z" transform="translate(318.275 1789.207)" fill="#dcd8d6"/>
    <path id="Path_51" data-name="Path 51" d="M1349.54,961.4c13.273,38.488,18.633,76.711-3.766,114.021C1358.123,1037.777,1345.371,999.3,1349.54,961.4Z" transform="translate(1011.464 892.456)" fill="#dcd8d6"/>
    <path id="Path_52" data-name="Path 52" d="M1419.179,1126.732c-15.271-37.738-15.156-75.487-.069-113.247C1426.815,1051.233,1424.192,1088.983,1419.179,1126.732Z" transform="translate(1665.492 1442.001)" fill="#dcd8d6"/>
    <path id="Path_53" data-name="Path 53" d="M1290.14,1136.633q-.208-51.582-.4-103.141c25.759,36.538,15.155,75.013,6.064,113.4Z" transform="translate(420.188 1653.097)" fill="#dcd8d6"/>
    <path id="Path_54" data-name="Path 54" d="M1391.062,1096.036c-34.987-3.648-71.547,10.5-105.114-9.275C1321.456,1084.44,1358.212,1068.2,1391.062,1096.036Z" transform="translate(380.231 2143.263)" fill="#dcd8d6"/>
    <path id="Path_55" data-name="Path 55" d="M1354.691,956.032c-34.385,13.4-68.648,14.6-102.748-1.016A309.266,309.266,0,0,1,1354.691,956.032Z" transform="translate(21.45 784.913)" fill="#dcd8d6"/>
    <path id="Path_56" data-name="Path 56" d="M1276.953,1024.349c40.787-13.215,32.5,16.448,33.337,38.163C1284.4,1062.686,1296.035,1030.1,1276.953,1024.349Z" transform="translate(285.324 1522.103)" fill="#dcd8d6"/>
    <path id="Path_57" data-name="Path 57" d="M1397.213,1063.537c28.449,16.575,11.378,42.958,14,65.08C1377.621,1113.124,1410.161,1083.45,1397.213,1063.537Z" transform="translate(1535.411 1970.107)" fill="#dcd8d6"/>
    <path id="Path_58" data-name="Path 58" d="M1378.107,1132.077c4.838-29.745-11.576-62,10.592-89.7C1381.317,1071.826,1402.952,1104.7,1378.107,1132.077Z" transform="translate(1338.257 1746.897)" fill="#dcd8d6"/>
    <path id="Path_59" data-name="Path 59" d="M1328.775,1064.561c27.041-5.671,42.438-.52,50.952,23.888C1359.512,1089.014,1342.982,1086.819,1328.775,1064.561Z" transform="translate(832.106 1958.791)" fill="#dcd8d6"/>
    <path id="Path_60" data-name="Path 60" d="M1295.936,1056.085c30.125-19.51,63.254-6.076,94.915-8.64C1361.419,1074.533,1327.782,1055.45,1295.936,1056.085Z" transform="translate(485.616 1777.654)" fill="#dcd8d6"/>
    <path id="Path_61" data-name="Path 61" d="M1453.2,1053.44c-23.645,24.753-53.6,8.084-80.373,12.255C1396.551,1041.519,1427.012,1061.525,1453.2,1053.44Z" transform="translate(1296.893 1861.656)" fill="#dcd8d6"/>
    <path id="Path_62" data-name="Path 62" d="M1418.289,984.931c-13.492-26.961-14.646-53.818.693-80.523Q1418.637,944.658,1418.289,984.931Z" transform="translate(1666.151 291.115)" fill="#dcd8d6"/>
    <path id="Path_63" data-name="Path 63" d="M1360.358,937.074c-4.068,24.189,18.065,54.222-15.975,71.7C1357.3,986.559,1337.117,956.977,1360.358,937.074Z" transform="translate(996.788 635.778)" fill="#dcd8d6"/>
    <path id="Path_64" data-name="Path 64" d="M1311.841,921.618c26.706,14.254,7.891,36.548,9.554,55.191.023.3-3.235,1.5-4.713,1.167-1.639-.369-3-2.021-4.482-3.119Q1312.028,948.244,1311.841,921.618Z" transform="translate(653.431 472.7)" fill="#dcd8d6"/>
    <path id="Path_65" data-name="Path 65" d="M1350.434,1085.4c17.881,21.947,6.839,47.452,8.8,71.363C1332.622,1135.9,1347.05,1109.969,1350.434,1085.4Z" transform="translate(987.385 2200.787)" fill="#dcd8d6"/>
    <path id="Path_66" data-name="Path 66" d="M1341.7,1097.067c-1.828,8.063,8.269,18.24-2.854,24.165-6.492,3.466-14.6,1.651-18.332-5.949-5.776-11.793-.808-20.548,9.6-27.006Q1335.9,1092.678,1341.7,1097.067Z" transform="translate(719.117 2231.142)" fill="#dcd8d6"/>
    <path id="Path_67" data-name="Path 67" d="M1392.719,1068.348c-14.981-26.521-13.793-53.193-.729-79.968Q1392.356,1028.353,1392.719,1068.348Z" transform="translate(1391.968 1177.116)" fill="#dcd8d6"/>
    <path id="Path_68" data-name="Path 68" d="M1346.294,953.5c14.692,26.394,14.472,52.754-.2,79.08Z" transform="translate(1014.872 809.092)" fill="#dcd8d6"/>
    <path id="Path_69" data-name="Path 69" d="M1335.069,955.183q.4-23.529.81-47.048C1362.03,924.284,1358.138,939.9,1335.069,955.183Z" transform="translate(898.513 330.45)" fill="#dcd8d6"/>
    <path id="Path_70" data-name="Path 70" d="M1344.944,1090.409c.14-10.56,4.389-18.586,14.267-23.161q15.055.605,30.066,1.237-11.625,13.325-23.241,26.625Q1355.486,1092.752,1344.944,1090.409Z" transform="translate(1002.706 2009.263)" fill="#dcd8d6"/>
    <path id="Path_71" data-name="Path 71" d="M1353.185,926.509c24.395,10.894,9.655,29.549,8.779,45.373-.024.393-3.4,1.19-4.886.74-1.606-.5-2.829-2.241-4.216-3.442Q1353.016,947.833,1353.185,926.509Z" transform="translate(1086.251 524.305)" fill="#dcd8d6"/>
    <path id="Path_72" data-name="Path 72" d="M1380.137,1093.592q-35.64-.141-71.269-.3C1332.732,1069.368,1356.459,1076.61,1380.137,1093.592Z" transform="translate(622.064 2122.434)" fill="#dcd8d6"/>
    <path id="Path_73" data-name="Path 73" d="M1342.3,972.971c-13.94-18.181-12.3-37.668-4.6-57.536.137-.335,3.65.081,5.105.948,1.549.924,2.53,2.795,3.753,4.263Q1344.433,946.807,1342.3,972.971Z" transform="translate(864.517 406.238)" fill="#dcd8d6"/>
    <path id="Path_74" data-name="Path 74" d="M1364.683,1124.482c15.745,22.373,6.089,47.277,7.116,71.13C1350.256,1173.816,1360.86,1148.807,1364.683,1124.482Z" transform="translate(1147.698 2613.147)" fill="#dcd8d6"/>
    <path id="Path_75" data-name="Path 75" d="M1329.9,953.125c-21.681,21.323-43.6,21.786-65.772.786Q1297.036,953.53,1329.9,953.125Z" transform="translate(150.037 805.135)" fill="#dcd8d6"/>
    <path id="Path_76" data-name="Path 76" d="M1315.955,1053.568c18.424-16.679,40.187-7.924,60.782-7.958C1358.938,1067.07,1336.793,1055.37,1315.955,1053.568Z" transform="translate(696.839 1757.047)" fill="#dcd8d6"/>
    <path id="Path_77" data-name="Path 77" d="M1336.589,1042.486c14.2,18.273,13.019,36.813.948,55.536C1330.4,1079.623,1332.409,1061.072,1336.589,1042.486Z" transform="translate(874.676 1747.994)" fill="#dcd8d6"/>
    <path id="Path_78" data-name="Path 78" d="M1296.572,935.574c25.746,15.825,18,35.335,6.1,55.318Q1299.62,963.24,1296.572,935.574Z" transform="translate(492.327 619.951)" fill="#dcd8d6"/>
    <path id="Path_79" data-name="Path 79" d="M1329.683,940.237q-7.486,12.249-14.968,24.522c-11.287-7.716-21.256-16.252-19.661-31.9Z" transform="translate(474.532 591.263)" fill="#dcd8d6"/>
    <path id="Path_80" data-name="Path 80" d="M1390.454,1095.009q-24.466,4.575-48.908,9.16C1351.677,1068.025,1369.027,1070.6,1390.454,1095.009Z" transform="translate(966.854 2110.205)" fill="#dcd8d6"/>
    <path id="Path_81" data-name="Path 81" d="M1313.12,1119.261c2.439-15.918,23.646-21.671,21.648-39.979C1353.988,1109.916,1352.683,1112.329,1313.12,1119.261Z" transform="translate(666.927 2136.235)" fill="#dcd8d6"/>
    <path id="Path_82" data-name="Path 82" d="M1346.062,947.132c-16.345,22.814-35.359,17.431-55.017,5.221Q1318.577,949.735,1346.062,947.132Z" transform="translate(434.011 741.902)" fill="#dcd8d6"/>
    <path id="Path_83" data-name="Path 83" d="M1288.468,1003.477c15.722,18.493,7.22,39.817,7.01,60.158C1273.013,1045.927,1286.469,1024.038,1288.468,1003.477Z" transform="translate(345.45 1336.406)" fill="#dcd8d6"/>
    <path id="Path_84" data-name="Path 84" d="M1358.564,1102.172c3.673,22.445-13.641,8.664-20.723,10.848-4.122,1.271-22.293,6.421-11.793-11.713Q1342.316,1101.741,1358.564,1102.172Z" transform="translate(769.337 2368.623)" fill="#dcd8d6"/>
    <path id="Path_85" data-name="Path 85" d="M1433.97,1022.455c-13.364-19.037-6.2-40.037-5.811-60.39C1447.276,980.547,1439.179,1001.64,1433.97,1022.455Z" transform="translate(1856.818 899.462)" fill="#dcd8d6"/>
    <path id="Path_86" data-name="Path 86" d="M1343.932,1141.938q0-4.816.036-9.634c13.571,7.612,36.1-16.15,43.675,12.474Z" transform="translate(992.039 2673.625)" fill="#dcd8d6"/>
    <path id="Path_87" data-name="Path 87" d="M1382.478,1173.021c-24-12.452-13.735-27.525-3.27-42.622Q1380.837,1151.71,1382.478,1173.021Z" transform="translate(1243.74 2675.578)" fill="#dcd8d6"/>
    <path id="Path_88" data-name="Path 88" d="M1382.383,1180.308c-20.444-13.47-14.8-28.474-2.588-43.872Q1381.08,1158.373,1382.383,1180.308Z" transform="translate(1254.6 2739.275)" fill="#dcd8d6"/>
    <path id="Path_89" data-name="Path 89" d="M1434.76,1090.354q-39.384-.364-78.755-.751C1382.443,1070.914,1408.712,1069.574,1434.76,1090.354Z" transform="translate(1119.413 2092.923)" fill="#dcd8d6"/>
    <path id="Path_90" data-name="Path 90" d="M1369.96,1087.474l103.048.936C1438.517,1103.078,1404.153,1104.338,1369.96,1087.474Z" transform="translate(1266.653 2222.669)" fill="#dcd8d6"/>
  </g>
</svg>
