<?xml version="1.0" encoding="utf-8"?>
<!-- Generator: Adobe Illustrator 23.0.3, SVG Export Plug-In . SVG Version: 6.00 Build 0)  -->
<svg version="1.1" id="layer" xmlns="http://www.w3.org/2000/svg" xmlns:xlink="http://www.w3.org/1999/xlink" x="0px" y="0px"
	 viewBox="0 0 296.2 113.7" style="enable-background:new 0 0 296.2 113.7;" xml:space="preserve">
<style type="text/css">
	.st0{fill:#FFFFFF;}
</style>
<g>
	<path class="st0" d="M248.6,102.6c0,2.6-1.3,3.7-3.8,3.7H226c-2.5,0-3.7-1.1-3.7-3.7v-71h-23.6c-2.5,0-3.8-1.1-3.8-3.7V13.3
		c0-2.6,1.2-3.7,3.8-3.7h49.9V102.6z M268.7,7.4c-7.5,0-13.6,6.1-13.6,13.6s6.1,13.6,13.6,13.6s13.6-6.1,13.6-13.6
		C282.3,13.5,276.2,7.4,268.7,7.4 M95.6,57.9c0,42.8-13.1,48.4-38,48.4H18.2c-2.5,0-3.7-1.1-3.7-3.7V13.2c0-2.6,1.2-3.7,3.7-3.7
		h39.4C82.4,9.5,95.6,15.1,95.6,57.9 M68.7,57.9c0-23-2.3-27.3-12.4-27.3H40.8v54.6h15.4C66.3,85.2,68.7,80.9,68.7,57.9 M190.4,57.9
		c0,42.1-10.7,49.8-41.8,49.8s-41.8-7.7-41.8-49.8s10.7-49.8,41.8-49.8C179.7,8.1,190.4,15.8,190.4,57.9 M163.6,57.9
		c0-25.9-1.7-28.6-15-28.6s-15,2.7-15,28.6s1.7,28.6,15,28.6C161.9,86.5,163.6,83.8,163.6,57.9"/>
</g>
</svg>
