<?xml version="1.0" encoding="utf-8"?>
<!-- Generator: Adobe Illustrator 23.0.3, SVG Export Plug-In . SVG Version: 6.00 Build 0)  -->
<svg version="1.1"
	 id="svg2" xmlns:cc="http://web.resource.org/cc/" xmlns:dc="http://purl.org/dc/elements/1.1/" xmlns:inkscape="http://www.inkscape.org/namespaces/inkscape" xmlns:rdf="http://www.w3.org/1999/02/22-rdf-syntax-ns#" xmlns:sodipodi="http://inkscape.sourceforge.net/DTD/sodipodi-0.dtd" xmlns:svg="http://www.w3.org/2000/svg"
	 xmlns="http://www.w3.org/2000/svg" xmlns:xlink="http://www.w3.org/1999/xlink" x="0px" y="0px" viewBox="0 0 234 323.1"
	 style="enable-background:new 0 0 234 323.1;" xml:space="preserve">
<style type="text/css">
	.st0{fill:#007EA6;}
	.st1{opacity:0.4;fill:#515151;}
	.st2{fill:#F6D47A;stroke:#FFFFFF;stroke-width:0.5;stroke-miterlimit:10;}
</style>
<sodipodi:namedview  bordercolor="#666666" borderopacity="1.0" id="base" inkscape:current-layer="svg2" inkscape:cx="686.77326" inkscape:cy="148.07413" inkscape:pageopacity="0.0" inkscape:pageshadow="2" inkscape:window-height="721" inkscape:window-width="1024" inkscape:window-x="-4" inkscape:window-y="-4" inkscape:zoom="0.50000000" pagecolor="#ffffff">
	</sodipodi:namedview>
<path id="path1364" class="st0" d="M130.4,293.4c-2.9-3.1-5.3-10.9-4.6-14.7c0.6-3.3,0.2-3.2-1.7,0.3c-0.9,1.7-1.1,3.2-0.6,3.8
	c1.7,1.8-5,1.3-9.2-0.6c-4.8-2.2-11.8-2.6-15.1-0.8c-1.2,0.6-4.3,2.9-7,5l-4.9,3.8L80,285c-4.1-2.9-8.3-6-9.4-7s-2.2-1.8-2.6-1.8
	s-2.3-1.2-4.2-2.6c-2.7-2.1-12.1-6.5-13.5-6.3c-0.1,0-1.7-0.5-3.5-1.1c-3.8-1.3-5.2-3.5-5.2-7.8c0-3.3,2.7-5.5,4.9-4.2
	c1.4,0.9,4.8,0.3,5.6-1c0.3-0.4-1.1-2.7-3-5c-3.6-4.3-4.5-8.6-2.3-10.8c0.7-0.7,0.9-1.2,0.6-1.2c-0.3,0,0.7-1.3,2.3-2.9
	c3.6-3.6,7.8-5.1,14.3-5.1c4.2,0,5.6,0.5,9.4,3.6c2.4,2,4.4,4.4,4.4,5.4c0,2.7,2.8,5.6,9.5,9.7c6.2,3.8,11,5.2,10.2,3
	c-0.3-0.7,0.6-1.3,2.1-1.4c3.5-0.3,5-2,5.3-6c0.3-3.9,1.9-4.1,5.2-0.7c1.4,1.4,3,2.5,3.7,2.5c2,0,0.1-6.3-2.6-8.7l-2.5-2.2l2.6-2.1
	c3-2.3,3.7-2.5,6.3-1.1c1.4,0.7,2.3,0.6,3.5-0.6c1.4-1.4,2-1.4,4.1-0.3c1.3,0.7,2.7,2.1,3,3.2c0.4,1.3,1.2,1.7,2.4,1.3
	c2.8-0.9,6.8,0.5,7.3,2.5c0.3,1.2,2.1,2.2,5.7,2.9c2.9,0.6,5.4,1,5.6,0.8c0.2-0.2,0-1.4-0.5-2.6c-0.7-1.9-1-2-2.1-0.7
	c-1.6,2-7.4,0.2-6.9-2.1c0.6-3,3.6-3.9,6.9-2l3.1,1.8l-0.5-2.6c-0.4-2.1,0-2.8,2.1-3.7c1.4-0.6,3.4-1.8,4.3-2.6
	c1.1-0.9,2.8-1.2,4.7-0.8c3.7,0.7,4.6-1.2,3-6c-1-3-0.9-3.6,0.7-4.8c1.6-1.2,2.1-1.1,3.9,0.6c1.1,1.1,3.8,2.2,6,2.5
	c10.1,1.3,11.4,1.8,14.8,4.9c2.8,2.6,3.6,4,3.6,6.8c0,3-0.4,3.7-2.9,4.5c-1.6,0.6-3.2,0.7-3.5,0.4c-0.9-0.9-3.5-1.4-9.8-1.9
	c-6.7-0.5-9.7,1.1-12.3,6.8c-2.3,5-6.7,6.6-10.6,3.8c-3.1-2.2-3.8-1.6-1.4,1.1c0.8,0.9,1.8,3,2.1,4.6c0.5,2.4,0.2,3.2-1.7,4.2
	c-2.5,1.3-9.8,11.9-9.8,14.1c0,0.7-1.3,2.8-3,4.6c-3.4,3.9-4.6,8.8-3.6,14.7c1.9,11.4,2,10.7-0.7,10.7
	C134,296.2,131.8,295,130.4,293.4z M135.2,229.3c1-1-4.3-3.5-6.8-3.2c-2.1,0.2-3.7-0.6-6.5-3.5c-2.1-2.1-6.4-5.3-9.7-7
	c-3.3-1.8-6.1-3.7-6.3-4.2c-0.7-2,7.2-1.1,11.6,1.4c2.3,1.3,4.2,2.1,4.2,1.6c0-1.1-3.2-3.9-5-4.3c-0.8-0.2-2.3-1.6-3.2-3.1
	c-1.8-2.9-2.3-4.8-1-4.6c0.4,0.1,2.1-0.5,3.8-1.2l3-1.4l-4.3-0.3c-4.6-0.4-6.3-2.2-4.2-4.7c1.6-2,0.3-4-1.6-2.5
	c-0.8,0.6-1.2,1.5-0.9,2s-2.7-0.1-6.6-1.1c-3.9-1.1-13.6-4.3-17.2-4.6c-5.1-0.4-6.8-0.2-8.1,1.1c-3.6,3.6-9.7,0.6-9.7-4.8
	c0-1.8-0.4-2.5-1.2-2c-0.7,0.4-0.9,0.3-0.4-0.5c0.4-0.6,1.2-0.9,1.8-0.5c2.1,1.3-0.3-5.1-3.1-8.1c-5.2-5.7-5.7-6.5-4.1-7.6
	c1.2-0.8,1.2-0.9-0.1-0.9c-0.9,0-2.1,0.5-2.8,1.2c-0.9,0.9-1.7,0.8-3.3-0.9c-2.4-2.4-1.8-3.3,4.1-6.1c5.3-2.6,6.1-7.1,2.5-14.9
	c-2.2-5-3.2-6.2-5.6-6.6c-4.4-0.9-4-4.7,0.6-6.9c4.2-2,4.4-4.1,1-8.7c-3.2-4.4-6.8-6.7-12.7-8.1c-2.6-0.6-5-1.5-5.3-2
	c-0.8-1.3,2.9-2.9,6.7-3.1c1.8-0.1,2.5-0.3,1.5-0.6c-1-0.3-2.2-1.6-2.8-3c-0.6-1.6-5.7-5.3-9.7-5.3c-1.2,0-2.2-0.4-2.2-0.8
	c0-3.2,10.4-4.5,14.5-1.8c1.7,1.1,2.6,1,6.3-1.2c3.6-2.1,4.7-2.3,6.8-1.4c3,1.3,3.2,3.2,0.4,3.9c-1.6,0.4-1.8,0.8-0.9,1.9
	c0.6,0.8,1-1.1,7.3-2.1c4.3-0.7,13.6-6.7,13.6-9.4c0-1.1-0.5-3.1-1.2-4.5c-1.4-3.1-0.7-4.1,2-2.6c1.5,0.8,2.4,0.8,3.3-0.2
	c0.7-0.7,2.8-1.9,4.5-2.6c3.6-1.5,4.9-4.9,3.7-9.7C91,66.1,89,64.7,84,63.9c-5.8-0.9-13.4-4.5-14.1-6.8c-1-3.2,1.5-3.6,6.2-1.1
	c2.5,1.3,6.2,2.4,8.2,2.4c2.1,0,7.3,0.9,11.7,2c8.3,2.1,13.7,2,17.1-0.6c1-0.8,2.9-1.4,4.1-1.4c1.8,0,2.2,0.5,2.2,2.8
	c0,1.6-0.9,3.6-2,4.6c-1.4,1.3-1.7,2.3-1.1,3.4c0.5,0.9,0.8,2.8,0.7,4.1c-0.1,1.8-0.7,2.5-2.3,2.5c-1.2,0-2-0.2-1.8-0.5
	s-1-1.3-2.6-2.2c-3.6-2-3.6-1.8-0.3,3.4c1.4,2.3,3.2,5.7,3.9,7.7l1.3,3.6l-3.5,0.3c-2,0.2-3.9-0.3-4.3-1c-0.6-0.9-1.1-0.8-2.3,0.7
	c-1.8,2.5-0.5,4,2.2,2.6c1.1-0.6,3.2-1.1,4.7-1.1c2.2,0,2.9,0.7,4.2,4c0.9,2.2,2,3.7,2.5,3.4c0.5-0.3,0.6,0.6,0.3,2
	c-0.5,2-0.3,2.6,1,2.6c0.9,0,1.5,0.3,1.2,0.8c-0.2,0.4-0.1,1.6,0.4,2.8c0.7,1.7,0.8,1.7,0.9,0.2c0-1,0-2,0-2.4s0.4-1,1.1-1.4
	s1.1-1.8,1.1-3.1c-0.4-7.4-0.2-8.8,1.5-11.2c1-1.4,3.1-3.1,4.7-3.8c1.5-0.6,2.8-1.3,2.8-1.4s-0.9-2.2-2-4.6
	c-2.7-5.9-2.6-9.3,0.3-10.6c1.6-0.7,3-0.7,4.8,0.1c2,0.9,2.5,2,2.8,6.1c0.2,2.8,1,5.7,1.8,6.7c2.1,2.3,4.4,10.4,4.4,15.6
	c0,6-1.4,8.3-5.1,8.3c-1.8,0-2.8,0.4-2.4,1c1.1,1.8,6.4,1.1,7.5-0.9c2.1-3.9,0.8-17.1-2.7-27.1c-0.3-0.8-0.6-2.9-0.8-4.6
	c-0.1-1.7-0.5-4.3-0.9-5.8c-0.7-3-3-3.3-10.2-1.5c-2.5,0.6-4.7,0.9-4.9,0.7c-0.2-0.2-0.7-1.9-1.1-3.6c-0.7-3.4,24.8-21.4,28.8-24.1
	c7.3-4.9,10.3-6.1,12.3-4.9c0.6,0.4,4.4,1.6,8.4,2.7c4.1,1.1,7.8,2.5,8.4,3.1s2.1,1,3.4,1c1.4,0,3.7,1.3,5.5,3.2
	c1.7,1.8,3.4,3.1,3.9,3s0.8,0.1,0.6,0.5c-0.1,0.4,0.2,1.8,0.6,3c0.5,1.5,0.3,3.1-0.8,4.7c-1.2,1.8-1.3,2.5-0.3,2.9
	c0.7,0.3,0.2,0.5-1,0.6c-1.2,0-2.2,0.6-2.2,1.1c0,0.6-0.9,2.9-2,5.2c-1.1,2.3-2,4.6-2,5.1s1.4,3.6,3,6.8c1.9,3.8,3,7.4,3,10.1
	c0,2.3,0.9,5.9,2,8s3.9,16.2,4.7,17.8c1.4,2.8,3.6,14.5,2.5,13.4c-0.3-0.3-1.1,0.4-1.9,1.5c-0.8,1.1-3,2.3-4.9,2.6
	c-4.8,0.9-7.6-1.8-8.4-8.3c-0.5-3.8-0.8-4.4-1.5-2.8c-1.6,3.8-2.5,4.4-5.1,3.5c-1.9-0.7-3.8-0.3-8.9,2.2c-3.6,1.7-7.5,4.2-8.8,5.5
	c-2.6,2.6-5.7,11-5.7,15.6c0,3.5,5.5,9.2,8.3,8.5c1-0.2,1.5-0.1,1.3,0.3c-0.6,0.9,6.5,3.2,7.7,2.4c0.5-0.3,0.7-0.2,0.6,0.3
	c-0.1,0.5,0.9,2.4,2.4,4.3c3.4,4.4,5.6,15.3,3.7,17.7c-3.4,4.1-8.7,6.3-15.3,6.3c-10.7,0-16.1,3.8-17.8,12.7c-0.6,3-0.4,3.2,2.9,3.9
	c2.5,0.5,3.6,1.3,4.1,3c0.8,3.1-0.1,5.3-2.5,6.2c-1.9,0.7-1.9,0.9,0.3,6.3c2.1,5.2,2.2,5.7,0.7,7.6c-0.9,1.2-2.5,1.9-3.6,1.7
	s-3.1,0.8-4.6,2.2c-2.1,2-3.4,2.4-7.2,2.2C136.8,229.8,134.9,229.5,135.2,229.3z"/>
<g>
	<ellipse class="st1" cx="177.2" cy="175.4" rx="5.8" ry="1.5"/>
	<path class="st2" d="M177.2,174.9c0,0-4.8-4.7-6.4-8.7c-1.7-4,0.6-9.3,6.4-9.3s7.6,5.4,6,9.4C181.7,170,177.2,174.9,177.2,174.9z"
		/>
</g>
</svg>
